<svg width="682" height="221" viewBox="0 0 682 221" fill="none" xmlns="http://www.w3.org/2000/svg">
<g clip-path="url(#clip0_1_34)">
<path fill-rule="evenodd" clip-rule="evenodd" d="M309.799 88.7837H287.527L272.571 62.9924H294.843L309.799 88.7837ZM309.224 62.9924L302.033 50.5926H251L258.191 62.9924L273.146 88.7837L280.336 101.183H331.369L324.18 88.7837L309.224 62.9924ZM371.201 88.7837H393.473L408.429 62.9924H386.157L371.201 88.7837ZM340.5 111.6H394.624L387.434 124.001H293.566L286.376 111.6H340.5ZM371.776 62.9924L378.967 50.5926H430L422.809 62.9924L407.854 88.7837L400.664 101.183H349.631L356.82 88.7837L371.776 62.9924ZM340.5 76.3849L332.734 62.9924L325.544 50.5926L340.5 24.8004L355.456 50.5926L348.266 62.9924L340.5 76.3849ZM333.309 88.7837L340.5 101.183L347.691 88.7837L362.647 62.9924L369.836 50.5926L362.646 38.192L340.5 0L318.353 38.192L311.163 50.5926L318.353 62.9924L333.309 88.7837H333.309Z" fill="#415FFF"/>
</g>
<path d="M6.27 196V149.8H50.787V161.02H19.899V168.478H37.125V179.698H19.899V196H6.27ZM48.0176 196L71.8436 149.8H84.1526L108.144 196H92.2046L88.1126 187.618H66.6296L62.3396 196H48.0176ZM71.5466 178.114H83.6246L77.7176 166.135L71.5466 178.114ZM114.422 196V149.8H124.619L153.461 176.464V149.8H166.067V196H155.837L127.061 169.6V196H114.422ZM190.564 196V161.68H173.47V149.8H221.254V161.68H204.16V196H190.564ZM218.367 196L242.193 149.8H254.502L278.493 196H262.554L258.462 187.618H236.979L232.689 196H218.367ZM241.896 178.114H253.974L248.067 166.135L241.896 178.114ZM282.679 183.262L295.681 181.546V186.166H318.385V177.817H296.011C294.119 177.817 292.403 177.674 290.863 177.388C289.323 177.102 288.025 176.585 286.969 175.837C285.913 175.067 285.099 174 284.527 172.636C283.955 171.272 283.669 169.534 283.669 167.422V159.304C283.669 157.214 283.977 155.531 284.593 154.255C285.209 152.957 286.067 151.945 287.167 151.219C288.267 150.471 289.576 149.976 291.094 149.734C292.634 149.47 294.317 149.338 296.143 149.338H318.319C320.167 149.338 321.85 149.47 323.368 149.734C324.886 149.976 326.184 150.46 327.262 151.186C328.362 151.912 329.209 152.924 329.803 154.222C330.397 155.498 330.694 157.17 330.694 159.238V162.175L317.725 163.825V159.634H296.671V167.488H318.946C320.794 167.488 322.477 167.62 323.995 167.884C325.513 168.126 326.822 168.61 327.922 169.336C329.022 170.04 329.869 171.041 330.463 172.339C331.057 173.637 331.354 175.32 331.354 177.388V186.1C331.354 190.368 330.254 193.162 328.054 194.482C325.854 195.802 322.818 196.462 318.946 196.462H295.054C293.162 196.462 291.446 196.319 289.906 196.033C288.366 195.769 287.057 195.263 285.979 194.515C284.923 193.745 284.109 192.689 283.537 191.347C282.965 190.005 282.679 188.267 282.679 186.133V183.262ZM357.783 196V176.167L335.607 149.8H353.097L365.01 165.673L376.956 149.8H392.664L371.412 176.101V196H357.783ZM469.57 149.8L447.13 171.613L447.163 171.052L473.959 196H454.654L430.267 172.471H433.237V196H419.608V149.8H433.237V171.613H431.356L453.169 149.8H469.57ZM480.258 196V149.8H493.887V196H480.258ZM506.426 196V149.8H516.623L545.465 176.464V149.8H558.071V196H547.841L519.065 169.6V196H506.426ZM569.764 159.337C569.764 155.531 570.809 152.913 572.899 151.483C574.989 150.053 578.08 149.338 582.172 149.338H607.384C611.498 149.338 614.6 150.053 616.69 151.483C618.802 152.913 619.858 155.531 619.858 159.337V162.208L606.229 164.848V160.261H583.393V185.539H606.427V178.543H594.844V168.478H620.056V186.067C620.056 190.049 619.033 192.777 616.987 194.251C614.963 195.725 611.828 196.462 607.582 196.462H582.172C577.926 196.462 574.791 195.725 572.767 194.251C570.765 192.755 569.764 190.027 569.764 186.067V159.337ZM628.986 183.262L641.988 181.546V186.166H664.692V177.817H642.318C640.426 177.817 638.71 177.674 637.17 177.388C635.63 177.102 634.332 176.585 633.276 175.837C632.22 175.067 631.406 174 630.834 172.636C630.262 171.272 629.976 169.534 629.976 167.422V159.304C629.976 157.214 630.284 155.531 630.9 154.255C631.516 152.957 632.374 151.945 633.474 151.219C634.574 150.471 635.883 149.976 637.401 149.734C638.941 149.47 640.624 149.338 642.45 149.338H664.626C666.474 149.338 668.157 149.47 669.675 149.734C671.193 149.976 672.491 150.46 673.569 151.186C674.669 151.912 675.516 152.924 676.11 154.222C676.704 155.498 677.001 157.17 677.001 159.238V162.175L664.032 163.825V159.634H642.978V167.488H665.253C667.101 167.488 668.784 167.62 670.302 167.884C671.82 168.126 673.129 168.61 674.229 169.336C675.329 170.04 676.176 171.041 676.77 172.339C677.364 173.637 677.661 175.32 677.661 177.388V186.1C677.661 190.368 676.561 193.162 674.361 194.482C672.161 195.802 669.125 196.462 665.253 196.462H641.361C639.469 196.462 637.753 196.319 636.213 196.033C634.673 195.769 633.364 195.263 632.286 194.515C631.23 193.745 630.416 192.689 629.844 191.347C629.272 190.005 628.986 188.267 628.986 186.133V183.262Z" fill="white"/>
<defs>
<clipPath id="clip0_1_34">
<rect width="179" height="124" fill="white" transform="translate(251)"/>
</clipPath>
</defs>
</svg>
