<svg width="622" height="200" viewBox="0 0 622 200" fill="none" xmlns="http://www.w3.org/2000/svg">
<g clip-path="url(#clip0_1_44)">
<path fill-rule="evenodd" clip-rule="evenodd" d="M65.6968 122.524H40.8119L24.1012 93.6124H48.9861L65.6968 122.524ZM65.0543 93.6124L57.0202 79.7127H0L8.03409 93.6124L24.7437 122.524L32.7778 136.423H89.798L81.765 122.524L65.0543 93.6124ZM134.303 122.524H159.188L175.899 93.6124H151.014L134.303 122.524ZM100 148.1H160.474L152.44 162.001H47.56L39.5259 148.1H100ZM134.946 93.6124L142.98 79.7127H200L191.966 93.6124L175.256 122.524L167.222 136.423H110.202L118.235 122.524L134.946 93.6124ZM100 108.625L91.3234 93.6124L83.2893 79.7127L100 50.8004L116.711 79.7127L108.677 93.6124L100 108.625ZM91.9659 122.524L100 136.423L108.034 122.524L124.745 93.6124L132.778 79.7127L124.744 65.812L100 23L75.2553 65.812L67.2212 79.7127L75.2542 93.6124L91.9649 122.524H91.9659Z" fill="#415FFF"/>
</g>
<path d="M231.27 72V25.8H275.787V37.02H244.899V44.478H262.125V55.698H244.899V72H231.27ZM273.018 72L296.844 25.8H309.153L333.144 72H317.205L313.113 63.618H291.63L287.34 72H273.018ZM296.547 54.114H308.625L302.718 42.135L296.547 54.114ZM339.422 72V25.8H349.619L378.461 52.464V25.8H391.067V72H380.837L352.061 45.6V72H339.422ZM415.564 72V37.68H398.47V25.8H446.254V37.68H429.16V72H415.564ZM443.367 72L467.193 25.8H479.502L503.493 72H487.554L483.462 63.618H461.979L457.689 72H443.367ZM466.896 54.114H478.974L473.067 42.135L466.896 54.114ZM507.679 59.262L520.681 57.546V62.166H543.385V53.817H521.011C519.119 53.817 517.403 53.674 515.863 53.388C514.323 53.102 513.025 52.585 511.969 51.837C510.913 51.067 510.099 50 509.527 48.636C508.955 47.272 508.669 45.534 508.669 43.422V35.304C508.669 33.214 508.977 31.531 509.593 30.255C510.209 28.957 511.067 27.945 512.167 27.219C513.267 26.471 514.576 25.976 516.094 25.734C517.634 25.47 519.317 25.338 521.143 25.338H543.319C545.167 25.338 546.85 25.47 548.368 25.734C549.886 25.976 551.184 26.46 552.262 27.186C553.362 27.912 554.209 28.924 554.803 30.222C555.397 31.498 555.694 33.17 555.694 35.238V38.175L542.725 39.825V35.634H521.671V43.488H543.946C545.794 43.488 547.477 43.62 548.995 43.884C550.513 44.126 551.822 44.61 552.922 45.336C554.022 46.04 554.869 47.041 555.463 48.339C556.057 49.637 556.354 51.32 556.354 53.388V62.1C556.354 66.368 555.254 69.162 553.054 70.482C550.854 71.802 547.818 72.462 543.946 72.462H520.054C518.162 72.462 516.446 72.319 514.906 72.033C513.366 71.769 512.057 71.263 510.979 70.515C509.923 69.745 509.109 68.689 508.537 67.347C507.965 66.005 507.679 64.267 507.679 62.133V59.262ZM582.783 72V52.167L560.607 25.8H578.097L590.01 41.673L601.956 25.8H617.664L596.412 52.101V72H582.783Z" fill="#415FFF"/>
<path d="M306.496 93.4L273.176 125.789L273.225 124.956L313.013 162H284.348L248.137 127.063H252.547V162H232.31V93.4H252.547V125.789H249.754L282.143 93.4H306.496ZM322.367 162V93.4H342.604V162H322.367ZM361.222 162V93.4H376.363L419.189 132.992V93.4H437.907V162H422.717L379.989 122.8V162H361.222ZM455.268 107.561C455.268 101.91 456.82 98.0223 459.923 95.899C463.027 93.7757 467.616 92.714 473.692 92.714H511.128C517.237 92.714 521.843 93.7757 524.946 95.899C528.082 98.0223 529.65 101.91 529.65 107.561V111.824L509.413 115.744V108.933H475.505V146.467H509.707V136.079H492.508V121.134H529.944V147.251C529.944 153.164 528.425 157.214 525.387 159.403C522.382 161.592 517.727 162.686 511.422 162.686H473.692C467.388 162.686 462.733 161.592 459.727 159.403C456.755 157.182 455.268 153.131 455.268 147.251V107.561ZM543.204 143.086L562.51 140.538V147.398H596.222V135.001H563C560.191 135.001 557.643 134.789 555.356 134.364C553.07 133.939 551.142 133.172 549.574 132.061C548.006 130.918 546.798 129.333 545.948 127.308C545.099 125.283 544.674 122.702 544.674 119.566V107.512C544.674 104.409 545.132 101.91 546.046 100.015C546.961 98.0877 548.235 96.585 549.868 95.507C551.502 94.3963 553.445 93.6613 555.699 93.302C557.986 92.91 560.485 92.714 563.196 92.714H596.124C598.868 92.714 601.367 92.91 603.621 93.302C605.875 93.6613 607.803 94.38 609.403 95.458C611.037 96.536 612.294 98.0387 613.176 99.966C614.058 101.861 614.499 104.343 614.499 107.414V111.775L595.242 114.225V108.002H563.98V119.664H597.055C599.799 119.664 602.298 119.86 604.552 120.252C606.806 120.611 608.75 121.33 610.383 122.408C612.017 123.453 613.274 124.94 614.156 126.867C615.038 128.794 615.479 131.293 615.479 134.364V147.3C615.479 153.637 613.846 157.786 610.579 159.746C607.313 161.706 602.805 162.686 597.055 162.686H561.579C558.77 162.686 556.222 162.474 553.935 162.049C551.649 161.657 549.705 160.906 548.104 159.795C546.536 158.652 545.328 157.084 544.478 155.091C543.629 153.098 543.204 150.518 543.204 147.349V143.086Z" fill="white"/>
<defs>
<clipPath id="clip0_1_44">
<rect width="200" height="139" fill="white" transform="translate(0 23)"/>
</clipPath>
</defs>
</svg>
