<svg width="579" height="388" viewBox="0 0 579 388" fill="none" xmlns="http://www.w3.org/2000/svg">
<g clip-path="url(#clip0_1_33)">
<path fill-rule="evenodd" clip-rule="evenodd" d="M243.705 132.46H210.484L188.175 93.9805H221.397L243.705 132.46ZM242.848 93.9805L232.122 75.4809H156L166.726 93.9805L189.033 132.46L199.758 150.959H275.88L265.156 132.46L242.848 93.9805ZM335.295 132.46H368.516L390.825 93.9805H357.603L335.295 132.46ZM289.5 166.5H370.233L359.507 185.001H219.493L208.767 166.5H289.5ZM336.152 93.9805L346.878 75.4809H423L412.274 93.9805L389.967 132.46L379.242 150.959H303.12L313.844 132.46L336.152 93.9805ZM289.5 113.961L277.917 93.9805L267.191 75.4809L289.5 37.0005L311.809 75.4809L301.083 93.9805L289.5 113.961ZM278.774 132.46L289.5 150.959L300.225 132.46L322.534 93.9805L333.258 75.4809L322.533 56.98L289.5 0L256.466 56.98L245.74 75.4809L256.464 93.9805L278.773 132.46H278.774Z" fill="#415FFF"/>
</g>
<path d="M71.27 257V210.8H115.787V222.02H84.899V229.478H102.125V240.698H84.899V257H71.27ZM122.258 257L146.084 210.8H158.393L182.384 257H166.445L162.353 248.618H140.87L136.58 257H122.258ZM145.787 239.114H157.865L151.958 227.135L145.787 239.114ZM197.902 257V210.8H208.099L236.941 237.464V210.8H249.547V257H239.317L210.541 230.6V257H197.902ZM283.284 257V222.68H266.19V210.8H313.974V222.68H296.88V257H283.284ZM320.327 257L344.153 210.8H356.462L380.453 257H364.514L360.422 248.618H338.939L334.649 257H320.327ZM343.856 239.114H355.934L350.027 227.135L343.856 239.114ZM393.879 244.262L406.881 242.546V247.166H429.585V238.817H407.211C405.319 238.817 403.603 238.674 402.063 238.388C400.523 238.102 399.225 237.585 398.169 236.837C397.113 236.067 396.299 235 395.727 233.636C395.155 232.272 394.869 230.534 394.869 228.422V220.304C394.869 218.214 395.177 216.531 395.793 215.255C396.409 213.957 397.267 212.945 398.367 212.219C399.467 211.471 400.776 210.976 402.294 210.734C403.834 210.47 405.517 210.338 407.343 210.338H429.519C431.367 210.338 433.05 210.47 434.568 210.734C436.086 210.976 437.384 211.46 438.462 212.186C439.562 212.912 440.409 213.924 441.003 215.222C441.597 216.498 441.894 218.17 441.894 220.238V223.175L428.925 224.825V220.634H407.871V228.488H430.146C431.994 228.488 433.677 228.62 435.195 228.884C436.713 229.126 438.022 229.61 439.122 230.336C440.222 231.04 441.069 232.041 441.663 233.339C442.257 234.637 442.554 236.32 442.554 238.388V247.1C442.554 251.368 441.454 254.162 439.254 255.482C437.054 256.802 434.018 257.462 430.146 257.462H406.254C404.362 257.462 402.646 257.319 401.106 257.033C399.566 256.769 398.257 256.263 397.179 255.515C396.123 254.745 395.309 253.689 394.737 252.347C394.165 251.005 393.879 249.267 393.879 247.133V244.262ZM478.223 257V237.167L456.047 210.8H473.537L485.45 226.673L497.396 210.8H513.104L491.852 237.101V257H478.223Z" fill="#415FFF"/>
<path d="M469.514 358.072L498.67 354.224V364.584H549.582V345.862H499.41C495.167 345.862 491.319 345.541 487.866 344.9C484.412 344.259 481.502 343.099 479.134 341.422C476.766 339.695 474.94 337.303 473.658 334.244C472.375 331.185 471.734 327.288 471.734 322.552V304.348C471.734 299.661 472.424 295.887 473.806 293.026C475.187 290.115 477.111 287.846 479.578 286.218C482.044 284.541 484.98 283.431 488.384 282.888C491.837 282.296 495.611 282 499.706 282H549.434C553.578 282 557.352 282.296 560.756 282.888C564.16 283.431 567.07 284.516 569.488 286.144C571.954 287.772 573.854 290.041 575.186 292.952C576.518 295.813 577.184 299.563 577.184 304.2V310.786L548.102 314.486V305.088H500.89V322.7H550.84C554.984 322.7 558.758 322.996 562.162 323.588C565.566 324.131 568.501 325.216 570.968 326.844C573.435 328.423 575.334 330.667 576.666 333.578C577.998 336.489 578.664 340.263 578.664 344.9V364.436C578.664 374.007 576.197 380.272 571.264 383.232C566.33 386.192 559.523 387.672 550.84 387.672H497.264C493.021 387.672 489.173 387.351 485.72 386.71C482.266 386.118 479.331 384.983 476.914 383.306C474.546 381.579 472.72 379.211 471.438 376.202C470.155 373.193 469.514 369.295 469.514 364.51V358.072Z" fill="white"/>
<path d="M336.713 304.422C336.713 295.887 339.056 290.017 343.743 286.81C348.429 283.603 355.361 282 364.537 282H421.073C430.298 282 437.254 283.603 441.941 286.81C446.677 290.017 449.045 295.887 449.045 304.422V310.86L418.483 316.78V306.494H367.275V363.178H418.927V347.49H392.953V324.92H449.489V364.362C449.489 373.291 447.195 379.409 442.607 382.714C438.068 386.019 431.038 387.672 421.517 387.672H364.537C355.015 387.672 347.985 386.019 343.447 382.714C338.957 379.359 336.713 373.242 336.713 364.362V304.422Z" fill="white"/>
<path d="M194.684 385.6V282H217.55L282.226 341.792V282H310.494V385.6H287.554L223.026 326.4V385.6H194.684Z" fill="white"/>
<path d="M136.004 385.6V282H166.566V385.6H136.004Z" fill="white"/>
<path d="M112.036 282L61.716 330.914L61.79 329.656L121.878 385.6H78.588L23.902 332.838H30.562V385.6H0V282H30.562V330.914H26.344L75.258 282H112.036Z" fill="white"/>
<defs>
<clipPath id="clip0_1_33">
<rect width="267" height="185" fill="white" transform="translate(156)"/>
</clipPath>
</defs>
</svg>
