<svg width="267" height="185" viewBox="0 0 267 185" fill="none" xmlns="http://www.w3.org/2000/svg">
<g clip-path="url(#clip0_1_4)">
<path fill-rule="evenodd" clip-rule="evenodd" d="M87.7052 132.46H54.4839L32.1752 93.9805H65.3965L87.7052 132.46ZM86.8475 93.9805L76.122 75.4809H0L10.7255 93.9805L33.0329 132.46L43.7584 150.959H119.88L109.156 132.46L86.8475 93.9805ZM179.295 132.46H212.516L234.825 93.9805H201.603L179.295 132.46ZM133.5 166.5H214.233L203.507 185.001H63.4926L52.7671 166.5H133.5ZM180.152 93.9805L190.878 75.4809H267L256.274 93.9805L233.967 132.46L223.242 150.959H147.12L157.844 132.46L180.152 93.9805ZM133.5 113.961L121.917 93.9805L111.191 75.4809L133.5 37.0005L155.809 75.4809L145.083 93.9805L133.5 113.961ZM122.774 132.46L133.5 150.959L144.225 132.46L166.534 93.9805L177.258 75.4809L166.533 56.98L133.5 0L100.466 56.98L89.7402 75.4809L100.464 93.9805L122.773 132.46H122.774Z" fill="#415FFF"/>
</g>
<defs>
<clipPath id="clip0_1_4">
<rect width="267" height="185" fill="white"/>
</clipPath>
</defs>
</svg>
